<svg width="59" height="54" viewBox="0 0 59 54" fill="none" xmlns="http://www.w3.org/2000/svg">
    <path d="M19.9943 6.75966C20.5622 5.26893 21.343 3.89651 22.5025 2.78437C27.1403 -1.73515 34.8069 -0.599352 37.954 5.07963C40.3203 9.38619 42.8285 13.5981 45.2657 17.8573C49.3357 24.9324 53.4529 32.0075 57.4755 39.1062C60.8593 45.0455 57.1916 52.5464 50.4715 53.5639C46.3542 54.1791 42.4972 52.2862 40.3676 48.5948C36.7946 42.3716 33.1979 36.1484 29.6249 29.9488C29.5539 29.8069 29.4592 29.6885 29.3646 29.5702C28.986 29.2626 28.8203 28.813 28.5837 28.4108C26.9983 25.6186 25.3656 22.8501 23.7802 20.0816C22.7628 18.2833 21.698 16.5086 20.6805 14.7102C19.7576 13.1012 19.3317 11.3502 19.379 9.5045C19.45 8.55801 19.5683 7.61151 19.9943 6.75966Z" fill="#3C8BD9"/>
    <path d="M19.9942 6.75964C19.7813 7.61149 19.592 8.46334 19.5446 9.36251C19.4737 11.3502 19.9706 13.1958 20.9644 14.9232C23.5673 19.3954 26.1701 23.8912 28.7493 28.3871C28.9859 28.7894 29.1752 29.1916 29.4119 29.5702C27.9921 32.0311 26.5724 34.4683 25.129 36.9292C23.1413 40.3603 21.1537 43.815 19.1424 47.246C19.0477 47.246 19.0241 47.1987 19.0004 47.1277C18.9767 46.9384 19.0477 46.7728 19.0951 46.5835C20.0652 43.0341 19.2607 39.887 16.8235 37.1895C15.3327 35.5568 13.4397 34.634 11.2628 34.3264C8.4233 33.9241 5.91509 34.6576 3.66716 36.4323C3.26489 36.7399 3.00461 37.1895 2.53136 37.4261C2.43671 37.4261 2.38939 37.3788 2.36572 37.3078C3.50152 35.3438 4.61365 33.3799 5.74945 31.4159C10.4346 23.276 15.1198 15.1361 19.8286 7.01993C19.8759 6.92528 19.9469 6.85429 19.9942 6.75964Z" fill="#FABC04"/>
    <path d="M2.46037 37.3788C2.90995 36.9765 3.33588 36.5506 3.80913 36.172C9.55909 31.6288 18.1959 34.9179 19.45 42.1113C19.7576 43.8386 19.592 45.495 19.0714 47.1514C19.0477 47.2934 19.0241 47.4117 18.9767 47.5536C18.7638 47.9322 18.5745 48.3345 18.3379 48.7131C16.2319 52.1915 13.1321 53.9188 9.06218 53.6585C4.40069 53.3273 0.733011 49.8252 0.0941258 45.1874C-0.213486 42.9395 0.2361 40.8335 1.39556 38.8932C1.63218 38.4673 1.91613 38.0887 2.17642 37.6627C2.29473 37.5681 2.24741 37.3788 2.46037 37.3788Z" fill="#34A852"/>
    <path d="M2.46038 37.3788C2.36573 37.4735 2.36573 37.6391 2.20009 37.6628C2.17643 37.4971 2.27108 37.4025 2.36573 37.2842L2.46038 37.3788Z" fill="#FABC04"/>
    <path d="M18.9767 47.5536C18.8821 47.388 18.9767 47.2697 19.0714 47.1514C19.095 47.175 19.1423 47.2224 19.166 47.246L18.9767 47.5536Z" fill="#E1C025"/>
</svg>

