<svg width="85" height="60" viewBox="0 0 85 60" fill="none" xmlns="http://www.w3.org/2000/svg">
    <path d="M28.5968 0H20.0721C11.4355 0 2.72074 6.37758 2.72074 20.6257C2.72074 28.0059 5.84859 33.7539 11.5823 37.0228L1.08797 56.0179C0.590392 56.9162 0.577384 57.9343 1.05305 58.7413C1.51746 59.5294 2.36672 60 3.32391 60H8.63262C9.8386 60 10.7789 59.4171 11.2298 58.3959L21.0695 39.15H21.7876V57.6013C21.7876 58.9016 22.8848 60 24.1836 60H28.8212C30.2777 60 31.2946 58.983 31.2946 57.5269V2.62535C31.2948 1.07965 30.1855 0 28.5968 0ZM21.7876 30.6007H20.5208C15.6089 30.6007 12.6765 26.5912 12.6765 19.8754C12.6765 11.5247 16.3808 8.54941 19.8477 8.54941H21.7876V30.6007Z" fill="#D7143A"/>
    <path d="M42.998 25.3242H44.8369C45.1149 25.3242 45.402 25.3333 45.6982 25.3516C45.999 25.3652 46.2907 25.4131 46.5732 25.4951C46.8604 25.5771 47.1292 25.7048 47.3799 25.8779C47.6351 26.0465 47.8584 26.2858 48.0498 26.5957C48.2412 26.901 48.3916 27.2884 48.501 27.7578C48.6149 28.2227 48.6719 28.7923 48.6719 29.4668V32.8574C48.6719 33.5319 48.6149 34.1038 48.501 34.5732C48.3916 35.0426 48.2412 35.43 48.0498 35.7354C47.8584 36.0407 47.6351 36.2799 47.3799 36.4531C47.1292 36.6217 46.8604 36.7471 46.5732 36.8291C46.2907 36.9111 45.999 36.9613 45.6982 36.9795C45.402 36.9932 45.1149 37 44.8369 37H42.998V25.3242ZM45.2197 35.7627C45.5387 35.7627 45.8008 35.7217 46.0059 35.6396C46.2155 35.5576 46.3796 35.4141 46.498 35.209C46.6211 34.9993 46.7054 34.7168 46.751 34.3613C46.7965 34.0013 46.8193 33.5479 46.8193 33.001V29.3779C46.8193 28.8311 46.7965 28.3799 46.751 28.0244C46.7054 27.6644 46.6211 27.3818 46.498 27.1768C46.3796 26.9671 46.2155 26.8213 46.0059 26.7393C45.8008 26.6572 45.5387 26.6162 45.2197 26.6162H44.7686V35.7627H45.2197ZM50.2578 25.3242H52.0283V37H50.2578V25.3242ZM53.5801 34.6348C53.5801 34.3841 53.5938 34.154 53.6211 33.9443C53.653 33.7301 53.6986 33.5 53.7578 33.2539H55.1318V33.8213C55.1318 34.1357 55.1501 34.4137 55.1865 34.6553C55.2275 34.8968 55.2913 35.1019 55.3779 35.2705C55.4691 35.4346 55.5876 35.5599 55.7334 35.6465C55.8838 35.7285 56.0661 35.7695 56.2803 35.7695C56.6175 35.7695 56.875 35.6784 57.0527 35.4961C57.2305 35.3092 57.3193 35.0381 57.3193 34.6826C57.3193 34.5003 57.3057 34.334 57.2783 34.1836C57.2555 34.0286 57.2122 33.876 57.1484 33.7256C57.0892 33.5752 57.0072 33.418 56.9023 33.2539C56.7975 33.0853 56.6631 32.8984 56.499 32.6934L54.6533 30.499C54.3252 30.0798 54.0723 29.6582 53.8945 29.2344C53.7168 28.806 53.6279 28.3503 53.6279 27.8672C53.6279 27.4798 53.6872 27.1243 53.8057 26.8008C53.9287 26.4772 54.1042 26.1992 54.332 25.9668C54.5599 25.7298 54.8402 25.5475 55.1729 25.4199C55.5101 25.2878 55.8906 25.2217 56.3145 25.2217C56.8294 25.2217 57.2578 25.2946 57.5996 25.4404C57.946 25.5863 58.2217 25.7777 58.4268 26.0146C58.6318 26.2516 58.7754 26.5182 58.8574 26.8145C58.944 27.1061 58.9873 27.4001 58.9873 27.6963C58.9873 27.9469 58.9668 28.1794 58.9258 28.3936C58.8893 28.6032 58.846 28.8356 58.7959 29.0908H57.4287V28.5371C57.4287 27.9173 57.3398 27.4434 57.1621 27.1152C56.9844 26.7826 56.695 26.6162 56.2939 26.6162C55.9613 26.6162 55.7129 26.7096 55.5488 26.8965C55.3848 27.0788 55.3027 27.3249 55.3027 27.6348C55.3027 27.7988 55.3141 27.9469 55.3369 28.0791C55.3643 28.2113 55.4007 28.3343 55.4463 28.4482C55.4964 28.5576 55.5557 28.6647 55.624 28.7695C55.6924 28.8743 55.7699 28.9837 55.8564 29.0977L57.9141 31.5859C58.2878 32.0736 58.5749 32.543 58.7754 32.9941C58.9759 33.4408 59.0762 33.9147 59.0762 34.416C59.0762 34.8307 59.0101 35.2044 58.8779 35.5371C58.7503 35.8698 58.5658 36.1523 58.3242 36.3848C58.0827 36.6172 57.791 36.7972 57.4492 36.9248C57.1074 37.0479 56.7223 37.1094 56.2939 37.1094C55.7653 37.1094 55.3255 37.0387 54.9746 36.8975C54.6283 36.7562 54.3503 36.5693 54.1406 36.3369C53.9355 36.1045 53.7897 35.8402 53.7031 35.5439C53.6211 35.2477 53.5801 34.9447 53.5801 34.6348ZM60.5664 25.3242H62.3369C62.5602 25.3242 62.804 25.3356 63.0684 25.3584C63.3372 25.3766 63.6038 25.4245 63.8682 25.502C64.137 25.5749 64.3945 25.6888 64.6406 25.8438C64.8913 25.9987 65.1123 26.2106 65.3037 26.4795C65.4951 26.7438 65.6478 27.0765 65.7617 27.4775C65.8802 27.8786 65.9395 28.3662 65.9395 28.9404V29.3506C65.9395 29.9749 65.8848 30.5104 65.7754 30.957C65.6706 31.3991 65.5293 31.7728 65.3516 32.0781C65.1738 32.3789 64.9665 32.6204 64.7295 32.8027C64.4971 32.985 64.2533 33.124 63.998 33.2197C63.7474 33.3109 63.4922 33.3724 63.2324 33.4043C62.9772 33.4316 62.7357 33.4453 62.5078 33.4453H62.3369V37H60.5664V25.3242ZM62.4258 32.1465C62.7448 32.1465 63.0137 32.1009 63.2324 32.0098C63.4512 31.9141 63.6243 31.7682 63.752 31.5723C63.8841 31.3717 63.9775 31.1165 64.0322 30.8066C64.0915 30.4922 64.1211 30.1162 64.1211 29.6787V28.626C64.1211 28.2796 64.096 27.9811 64.0459 27.7305C63.9958 27.4753 63.9046 27.2656 63.7725 27.1016C63.6449 26.9375 63.4717 26.8167 63.2529 26.7393C63.0342 26.6572 62.7585 26.6162 62.4258 26.6162H62.3369V32.1465H62.4258ZM67.2793 25.3242H69.0498V35.6055H71.4629V37H67.2793V25.3242ZM73.8691 25.3242H75.9062L78.0664 37H76.2754L75.9541 34.9082H73.8213L73.5137 37H71.7158L73.8691 25.3242ZM75.749 33.5752L74.9287 27.7578H74.8535L74.0264 33.5752H75.749ZM80.5889 33.1104L78.2373 25.3242H80.0215L81.4502 30.9092H81.5322L82.9473 25.3242H84.7246L82.3594 33.1104V37H80.5889V33.1104Z" fill="#A8A5A5"/>
</svg>

