<svg width="85" height="60" viewBox="0 0 85 60" fill="none" xmlns="http://www.w3.org/2000/svg">
    <path d="M28.5968 0H20.0721C11.4355 0 2.72074 6.37758 2.72074 20.6257C2.72074 28.0059 5.84859 33.7539 11.5823 37.0228L1.08797 56.0179C0.590392 56.9162 0.577384 57.9343 1.05305 58.7413C1.51746 59.5294 2.36672 60 3.32391 60H8.63262C9.8386 60 10.7789 59.4171 11.2298 58.3959L21.0695 39.15H21.7876V57.6013C21.7876 58.9016 22.8848 60 24.1836 60H28.8212C30.2777 60 31.2946 58.983 31.2946 57.5269V2.62535C31.2948 1.07965 30.1855 0 28.5968 0ZM21.7876 30.6007H20.5208C15.6089 30.6007 12.6765 26.5912 12.6765 19.8754C12.6765 11.5247 16.3808 8.54941 19.8477 8.54941H21.7876V30.6007Z" fill="#D7143A"/>
    <path d="M42.998 25.3242H44.8369C45.1149 25.3242 45.402 25.3333 45.6982 25.3516C45.999 25.3652 46.2907 25.4131 46.5732 25.4951C46.8604 25.5771 47.1292 25.7048 47.3799 25.8779C47.6351 26.0465 47.8584 26.2858 48.0498 26.5957C48.2412 26.901 48.3916 27.2884 48.501 27.7578C48.6149 28.2227 48.6719 28.7923 48.6719 29.4668V32.8574C48.6719 33.5319 48.6149 34.1038 48.501 34.5732C48.3916 35.0426 48.2412 35.43 48.0498 35.7354C47.8584 36.0407 47.6351 36.2799 47.3799 36.4531C47.1292 36.6217 46.8604 36.7471 46.5732 36.8291C46.2907 36.9111 45.999 36.9613 45.6982 36.9795C45.402 36.9932 45.1149 37 44.8369 37H42.998V25.3242ZM45.2197 35.7627C45.5387 35.7627 45.8008 35.7217 46.0059 35.6396C46.2155 35.5576 46.3796 35.4141 46.498 35.209C46.6211 34.9993 46.7054 34.7168 46.751 34.3613C46.7965 34.0013 46.8193 33.5479 46.8193 33.001V29.3779C46.8193 28.8311 46.7965 28.3799 46.751 28.0244C46.7054 27.6644 46.6211 27.3818 46.498 27.1768C46.3796 26.9671 46.2155 26.8213 46.0059 26.7393C45.8008 26.6572 45.5387 26.6162 45.2197 26.6162H44.7686V35.7627H45.2197ZM50.2578 25.3242H52.0283V37H50.2578V25.3242ZM54.0312 25.3242H55.9521C56.1709 25.3242 56.4102 25.3333 56.6699 25.3516C56.9342 25.3698 57.1963 25.4154 57.4561 25.4883C57.7204 25.5566 57.9733 25.6615 58.2148 25.8027C58.4609 25.944 58.6774 26.1377 58.8643 26.3838C59.0557 26.6299 59.2083 26.9398 59.3223 27.3135C59.4362 27.6826 59.4932 28.1315 59.4932 28.6602V28.9541C59.4932 29.8428 59.3656 30.5674 59.1104 31.1279C58.8551 31.6839 58.4792 32.085 57.9824 32.3311L59.8555 37H57.9824L56.4307 32.6318H55.7676V37H54.0312V25.3242ZM56.0342 31.3535C56.3441 31.3535 56.6061 31.3193 56.8203 31.251C57.0345 31.1826 57.2077 31.0687 57.3398 30.9092C57.472 30.7451 57.5677 30.5309 57.627 30.2666C57.6862 29.9977 57.7158 29.6673 57.7158 29.2754V28.3525C57.7158 28.0518 57.6885 27.792 57.6338 27.5732C57.5791 27.3545 57.4857 27.1745 57.3535 27.0332C57.2259 26.8919 57.055 26.7871 56.8408 26.7188C56.6266 26.6504 56.3577 26.6162 56.0342 26.6162H55.7676V31.3535H56.0342ZM61.1953 25.3242H65.5225V26.7188H62.9658V30.2119H64.9414V31.6064H62.9658V35.6055H65.5908V37H61.1953V25.3242ZM69.3848 37.1025C69.2025 37.1025 69.0042 37.0866 68.79 37.0547C68.5804 37.0273 68.3685 36.9658 68.1543 36.8701C67.9447 36.7744 67.7419 36.64 67.5459 36.4668C67.3545 36.2891 67.1836 36.0566 67.0332 35.7695C66.8874 35.4824 66.7689 35.1292 66.6777 34.71C66.5911 34.2861 66.5479 33.7826 66.5479 33.1992V29.0635C66.5479 28.4756 66.5934 27.9743 66.6846 27.5596C66.7757 27.1403 66.8965 26.7894 67.0469 26.5068C67.1973 26.2197 67.3704 25.9919 67.5664 25.8232C67.7624 25.6546 67.9652 25.527 68.1748 25.4404C68.3844 25.3493 68.5918 25.29 68.7969 25.2627C69.0065 25.2354 69.2002 25.2217 69.3779 25.2217C69.8428 25.2217 70.2301 25.2878 70.54 25.4199C70.8545 25.5475 71.1051 25.7253 71.292 25.9531C71.4834 26.1764 71.6178 26.4385 71.6953 26.7393C71.7773 27.04 71.8184 27.359 71.8184 27.6963C71.8184 27.9469 71.8047 28.1794 71.7773 28.3936C71.7546 28.6032 71.7181 28.8356 71.668 29.0908H70.2324V28.4961C70.2324 27.8535 70.1618 27.3727 70.0205 27.0537C69.8792 26.7347 69.6719 26.5752 69.3984 26.5752C69.2344 26.5752 69.0908 26.6071 68.9678 26.6709C68.8447 26.7347 68.7422 26.8441 68.6602 26.999C68.5781 27.1494 68.5143 27.3499 68.4688 27.6006C68.4277 27.8512 68.4072 28.1634 68.4072 28.5371V33.8691C68.4072 34.2337 68.4232 34.5368 68.4551 34.7783C68.4915 35.0199 68.5485 35.2135 68.626 35.3594C68.7035 35.5052 68.8037 35.61 68.9268 35.6738C69.0544 35.7331 69.207 35.7627 69.3848 35.7627C69.4987 35.7627 69.6081 35.7376 69.7129 35.6875C69.8177 35.6328 69.9089 35.5508 69.9863 35.4414C70.0684 35.3275 70.1322 35.1862 70.1777 35.0176C70.2279 34.8444 70.2529 34.6416 70.2529 34.4092V33.2676H71.873V34.3477C71.873 35.2865 71.6589 35.9792 71.2305 36.4258C70.8021 36.8724 70.1868 37.098 69.3848 37.1025ZM74.3477 26.7188H72.4678V25.3242H77.9912V26.7188H76.1182V37H74.3477V26.7188Z" fill="#A8A5A5"/>
</svg>

